<svg xmlns="http://www.w3.org/2000/svg" xmlns:xlink="http://www.w3.org/1999/xlink" viewBox="0 0 240.51 241.52"><defs><clipPath id="a5896dd2-4c7d-4167-90a5-e4ab023e0e88" transform="translate(-0.77 -0.13)"><rect width="240.51" height="238.09" style="fill:none"/></clipPath><radialGradient id="f425e7c7-6d2b-493d-b2cd-92f030552cb1" cx="120.26" cy="120.26" r="120.26" gradientUnits="userSpaceOnUse"><stop offset="0" stop-color="#93278f"/><stop offset="0.32" stop-color="#91278e"/><stop offset="0.49" stop-color="#89258b"/><stop offset="0.63" stop-color="#7b2387"/><stop offset="0.74" stop-color="#682080"/><stop offset="0.85" stop-color="#4f1c77"/><stop offset="0.94" stop-color="#31186c"/><stop offset="1" stop-color="#1b1464"/></radialGradient><linearGradient id="ff33588f-9520-4880-ab45-7115b872acd9" x1="127.33" y1="292.65" x2="125.07" y2="81.48" gradientUnits="userSpaceOnUse"><stop offset="0" stop-color="#fcee21"/><stop offset="0.12" stop-color="#f7d428"/><stop offset="0.29" stop-color="#efa933"/><stop offset="0.35" stop-color="#e77d3f"/><stop offset="0.48" stop-color="#d4145a"/><stop offset="0.6" stop-color="#c1272d"/><stop offset="0.75"/></linearGradient><linearGradient id="fcf451e8-0198-4f17-857e-fbb710dfbaa4" x1="110.69" y1="222.69" x2="95.8" y2="197.64" gradientUnits="userSpaceOnUse"><stop offset="0" stop-color="#fff"/><stop offset="0.74" stop-color="#d67276"/><stop offset="1" stop-color="#c1272d"/></linearGradient><linearGradient id="ed959857-b5ad-4bc2-8917-e03a9c353f3a" x1="129.54" y1="156.84" x2="146.69" y2="193.7" gradientUnits="userSpaceOnUse"><stop offset="0"/><stop offset="1" stop-opacity="0"/></linearGradient><linearGradient id="b8bd487c-329a-4ef7-82ec-b451c8fb6a5a" x1="93.71" y1="182.09" x2="147.49" y2="297.7" xlink:href="#ed959857-b5ad-4bc2-8917-e03a9c353f3a"/><linearGradient id="aa94f140-45e3-41e7-a983-7ec5ab15634d" x1="95.85" y1="121.28" x2="123.16" y2="108.14" gradientUnits="userSpaceOnUse"><stop offset="0" stop-color="#fff" stop-opacity="0"/><stop offset="0.03" stop-color="#fff" stop-opacity="0.14"/><stop offset="0.06" stop-color="#fff" stop-opacity="0.32"/><stop offset="0.11" stop-color="#fff" stop-opacity="0.48"/><stop offset="0.15" stop-color="#fff" stop-opacity="0.62"/><stop offset="0.2" stop-color="#fff" stop-opacity="0.74"/><stop offset="0.25" stop-color="#fff" stop-opacity="0.84"/><stop offset="0.31" stop-color="#fff" stop-opacity="0.91"/><stop offset="0.38" stop-color="#fff" stop-opacity="0.96"/><stop offset="0.47" stop-color="#fff" stop-opacity="0.99"/><stop offset="0.65" stop-color="#fff"/></linearGradient><linearGradient id="badbb9f7-1366-4a12-9f31-b141a3a6ee54" x1="111.77" y1="112.52" x2="121.56" y2="121.38" gradientUnits="userSpaceOnUse"><stop offset="0"/><stop offset="0.13" stop-opacity="0.66"/><stop offset="1" stop-opacity="0"/></linearGradient><linearGradient id="b02c72a0-62f6-4adc-a5ff-906e31c2f498" x1="110.26" y1="118.6" x2="112.38" y2="114.93" gradientUnits="userSpaceOnUse"><stop offset="0" stop-color="#fff"/><stop offset="0.22" stop-color="#fff" stop-opacity="0.76"/><stop offset="0.6" stop-color="#fff" stop-opacity="0.36"/><stop offset="0.87" stop-color="#fff" stop-opacity="0.1"/><stop offset="1" stop-color="#fff" stop-opacity="0"/></linearGradient><linearGradient id="b3118aa5-0ff1-433e-9b96-2a9472e0641f" x1="111.63" y1="119.46" x2="113.74" y2="115.81" xlink:href="#b02c72a0-62f6-4adc-a5ff-906e31c2f498"/><linearGradient id="bbeca114-b866-4049-824a-681a2e5bac17" x1="64.73" y1="124.31" x2="81.73" y2="116.12" gradientTransform="matrix(-1, 0, 0, 1, 146.55, 0)" xlink:href="#aa94f140-45e3-41e7-a983-7ec5ab15634d"/><linearGradient id="e58ad965-5c0a-4e64-9423-9af55efaf5fd" x1="79.45" y1="134.35" x2="86.45" y2="138.31" gradientTransform="matrix(1.17, 0.65, -0.59, 1.06, 60.85, -74.11)" gradientUnits="userSpaceOnUse"><stop offset="0"/><stop offset="0.14" stop-opacity="0.63"/><stop offset="1" stop-opacity="0"/></linearGradient><linearGradient id="e6cd8560-081a-497c-be64-3a1dcc09bc8c" x1="79.14" y1="138.53" x2="80.38" y2="136.39" gradientTransform="translate(30.61 -30.01) rotate(13.91)" xlink:href="#b02c72a0-62f6-4adc-a5ff-906e31c2f498"/><linearGradient id="e629a5d3-d3ec-4935-aaa6-796f570c5dba" x1="79.95" y1="139.02" x2="81.18" y2="136.9" gradientTransform="translate(30.61 -30.01) rotate(13.91)" xlink:href="#b02c72a0-62f6-4adc-a5ff-906e31c2f498"/></defs><g id="feaa5681-5713-4597-8349-5893661997b1" data-name="Layer 2"><g id="f4773a75-798b-4d03-bd73-17c1f8cf2c47" data-name="female_human"><g style="clip-path:url(#a5896dd2-4c7d-4167-90a5-e4ab023e0e88)"><rect width="240.51" height="240.51" style="fill:url(#f425e7c7-6d2b-493d-b2cd-92f030552cb1)"/><path d="M90.64,215c.85,4,2.66,16.1,4.1,26h31.82l38.92-52.86c-3.33.67-5.65,1.07-5.65.8,0-33.45-4.17-52.43-4.17-52.43l-19.06,24.6S99.17,181.82,87,192.85l9.52-.08S89.11,207.83,90.64,215Z" transform="translate(-0.77 -0.13)" style="fill:url(#ff33588f-9520-4880-ab45-7115b872acd9)"/><polygon points="209.49 220.47 179.11 237.06 189.23 238.09 211.28 238.09 209.49 220.47" style="fill:#fff"/><polygon points="227.01 240.55 221.87 217.15 206.3 218.68 204.51 231.19 207.56 240.55 227.01 240.55"/><path d="M108.94,177.11a20.77,20.77,0,0,1,4.85,11.57c.67,5.95,1.36,17.79,1.36,17.79s2-13.28.85-20.43c-.83-5-1.79-11.49-1.79-11.49Z" transform="translate(-0.77 -0.13)"/><path d="M87.57,215.74c.54,4.66,1.71,16.95,3.5,24.77h7.74c-1.38-9.67-3.68-31.07,1.79-38.3l13.46-19.76-1.21-7s-23.35,13.7-27.23,18.39C79.49,201.28,82.47,204,82.47,204A24.64,24.64,0,0,1,87.57,215.74Z" transform="translate(-0.77 -0.13)" style="stroke:#000;stroke-miterlimit:10;stroke-width:2px;fill:url(#fcf451e8-0198-4f17-857e-fbb710dfbaa4)"/><path d="M122.65,240.3c1-2.77,1.93-5.58,2.67-8.2,1.24-4.33,2-8.32,2.8-12.19a93.75,93.75,0,0,1,3.31-13.28c3.41-9.61,7.13-16.22,12-21.43,5.61-5.95,30.83-22.08,37-22.08.47,0,.6.11.6.11h0a.51.51,0,0,1,0,.17c0,6.13-3.33,19.23-3.68,20.58-11,20.89-28.51,52-33.56,56.32Z" transform="translate(-0.77 -0.13)" style="fill:#fff"/><path d="M180.05,164.14c-.24,6.12-3.16,17.73-3.61,19.47C163.3,208.45,148,235,143.45,239.3H124.07c.83-2.36,1.58-4.71,2.21-6.92,1.25-4.37,2.05-8.39,2.82-12.27A94.88,94.88,0,0,1,132.37,207c3.37-9.48,7-16,11.83-21.09,5.27-5.59,29.4-21.09,35.85-21.74m.39-2c-6.71,0-32.17,16.53-37.7,22.39-5.85,6.21-9.44,13.87-12.25,21.79s-3.4,16-6.13,25.53c-1,3.42-2.11,6.71-3.15,9.47h22.38v.35c5.75-2.53,34.73-57.31,34.73-57.31s3.74-14.3,3.74-20.94c0-.88-.59-1.28-1.62-1.28Z" transform="translate(-0.77 -0.13)"/><path d="M144.45,240.45a46,46,0,0,1,.62-11.83c2-10.32,5.77-15,11-21.5,12-14.84,21.78-23,27.63-23.06H184c5.71,0,8.17,1.82,8.19,1.84l5.25,4.92c-4,3.48-20.93,18.33-23.18,20.35-1.72,1.55-13.83,16.69-23.81,29.28Z" transform="translate(-0.77 -0.13)" style="fill:#fff"/><path d="M184,185.06c4.9,0,7.22,1.39,7.53,1.59l4.43,4.15c-5.12,4.48-20.22,17.7-22.36,19.63-1.43,1.28-9.38,11-23.63,29H145.4a44.3,44.3,0,0,1,.65-10.65c1.94-10.06,5.47-14.43,10.81-21.05l.06-.07c16.43-20.34,24.22-22.59,26.8-22.62H184m0-2h-.26c-9.32.09-24.14,18.17-28.34,23.37-5.36,6.63-9.23,11.4-11.27,22a47.81,47.81,0,0,0-.56,13h7.36c8.28-10.45,22.22-27.93,24-29.54,2.56-2.29,24-21.06,24-21.06l-6.12-5.74s-2.6-2.05-8.81-2.05Z" transform="translate(-0.77 -0.13)"/><path d="M153.23,240.45a42,42,0,0,1,4-8.45c3.19-5.37,8.64-11.56,13.45-17,1.91-2.17,3.72-4.22,5.35-6.17,6-7.17,20-17.22,22.5-18a12.17,12.17,0,0,1,3.69-.67c2.47,0,5.2,1,8.59,3.19a13.19,13.19,0,0,1,6.16,10c-3.38,2.2-23.8,15.54-30.22,20.32-2.54,1.9-8.26,7.53-17,16.74Z" transform="translate(-0.77 -0.13)" style="fill:#fff"/><path d="M202.19,191.16c2.24,0,4.87,1,8.05,3a12.25,12.25,0,0,1,5.64,8.69c-4.6,3-23.5,15.36-29.76,20-2.56,1.91-8.22,7.47-16.83,16.54H154.64a44.28,44.28,0,0,1,3.42-6.94c3.14-5.29,8.56-11.44,13.34-16.87,1.92-2.17,3.73-4.23,5.37-6.19,5.76-6.89,19.66-16.94,22-17.66a11.15,11.15,0,0,1,3.39-.63m0-2a13.2,13.2,0,0,0-4,.71c-2.93.9-17.1,11.28-23,18.3S160.81,224,156.34,231.49a41.51,41.51,0,0,0-4.47,10h18.28c7.17-7.56,14.21-14.74,17.17-16.94,7-5.23,30.64-20.6,30.64-20.6a14.15,14.15,0,0,0-6.64-11.4c-4-2.59-6.88-3.35-9.13-3.35Z" transform="translate(-0.77 -0.13)"/><path d="M172.73,240.4A79.9,79.9,0,0,1,182.79,225c8.41-9.56,29.94-20.36,33.29-22,4.06,2.07,13.51,7.66,14.92,12.08,1.32,4.13-2.63,13.42-4.94,18-.56-.93-1.33-2.26-2.43-4.15-2.23-3.87-4.2-5.53-6.57-5.53s-4.9,1.77-8.6,4.44c-2.15,1.57-4.6,3.33-7.66,5.2l-8.54,5.23-3.44,2.11Z" transform="translate(-0.77 -0.13)" style="fill:#fff"/><path d="M216.07,204.11c5.15,2.67,12.84,7.7,14,11.26,1,3.14-1.57,10.31-4.07,15.62-.42-.7-.9-1.54-1.48-2.54-1.72-3-3.95-6-7.44-6-2.78,0-5.47,2-9.18,4.63-2.15,1.55-4.57,3.31-7.6,5.16l-8.56,5.24-3.18,2H174.39a75.81,75.81,0,0,1,9.15-13.74c8-9.06,28.08-19.34,32.53-21.55m0-2.24S191.36,213.74,182,224.34A83.19,83.19,0,0,0,171.1,241.4h18c4.08-2.49,8.27-5.08,12.22-7.49,8.16-5,12.31-9.49,15.74-9.49,1.93,0,3.64,1.44,5.71,5,3,5.24,3.82,6.49,3.9,6.49a6.22,6.22,0,0,0-.44-1s7.64-14.17,5.73-20.17-15.87-12.9-15.87-12.9Z" transform="translate(-0.77 -0.13)"/><path d="M89.38,240.46,84.66,232l-15-18.56c-.35-.62-3-5.71,1.66-9.37a8.55,8.55,0,0,1,5.41-1.89,11.36,11.36,0,0,1,5.28,1.4c.47.45,3.42,3.49,6,9.94,2.15,5.43,2.6,18.82,2.67,27Z" transform="translate(-0.77 -0.13)" style="fill:#fff"/><path d="M76.75,203.13a10.51,10.51,0,0,1,4.68,1.2,29.06,29.06,0,0,1,5.65,9.51c1.49,3.77,2.41,12.83,2.58,25.07l-4.08-7.37-.09-.15-.1-.14L70.51,212.83c-.46-.85-2.4-5,1.45-8a7.56,7.56,0,0,1,4.79-1.68m0-2a9.58,9.58,0,0,0-6,2.1C65.11,207.66,68.85,214,68.85,214l15,18.55,5,9h2.9c0-7.86-.44-22.51-2.75-28.35-2.91-7.35-6.3-10.39-6.3-10.39a12.33,12.33,0,0,0-5.89-1.59Z" transform="translate(-0.77 -0.13)"/><path d="M79,240.45a37.83,37.83,0,0,1-6.75-5.4c-3.73-3.87-10.9-10-12.28-11.12-.93-3-2.43-10.34.67-12.18a7.64,7.64,0,0,1,3.87-1.16,5.42,5.42,0,0,1,2.86.77A48.56,48.56,0,0,1,81,225.05,83.94,83.94,0,0,1,88,240.45Z" transform="translate(-0.77 -0.13)" style="fill:#fff"/><path d="M64.55,211.59a4.37,4.37,0,0,1,2.26.57l.07.05.07,0A47.65,47.65,0,0,1,80.1,225.59a77.83,77.83,0,0,1,6.5,13.86H79.34A36.89,36.89,0,0,1,73,234.36c-3.59-3.73-10.31-9.47-12.13-11-1.13-3.81-1.77-9.51.31-10.75a6.62,6.62,0,0,1,3.36-1m0-2a8.52,8.52,0,0,0-4.38,1.3c-4.6,2.73-1,13.62-1,13.62s8.36,7,12.42,11.23a38.67,38.67,0,0,0,7.18,5.71H89.47c-2-5.59-4.76-12.38-7.68-16.94a49.11,49.11,0,0,0-13.79-14,6.22,6.22,0,0,0-3.45-1Z" transform="translate(-0.77 -0.13)"/><path d="M52.4,240.49a18.82,18.82,0,0,1-2.3-7.43,9.18,9.18,0,0,1,2-7.58A6.87,6.87,0,0,1,56.6,223h1c2.14,0,4.71.6,12.58,7.91a29.34,29.34,0,0,1,6.8,9.63Z" transform="translate(-0.77 -0.13)" style="fill:#fff"/><path d="M57.63,224c1.46,0,3.67,0,11.9,7.64a28,28,0,0,1,5.89,7.9H53a19.13,19.13,0,0,1-1.88-6.57,8.19,8.19,0,0,1,1.82-6.78A6,6,0,0,1,56.6,224h1m0-2h-1c-2.73,0-8.51,3.74-7.49,11.23.56,4.12,1.6,6.7,2.76,8.3H78.52a31.11,31.11,0,0,0-7.63-11.36c-8.26-7.67-11-8.18-13.26-8.18Z" transform="translate(-0.77 -0.13)"/><path d="M112.94,177l-.51-4.25,38.8-25.71s-22.38,26.56-29.53,32.56S112.94,177,112.94,177Z" transform="translate(-0.77 -0.13)" style="opacity:0.4;fill:url(#ed959857-b5ad-4bc2-8917-e03a9c353f3a)"/><path d="M98.14,240h3.31c.66-6.45,2-17.44,4.68-25.87,2.76-8.63,8.63-13.1,8.85-14.3,1.87-10.21-2.38-25.53-2.38-25.53L99.15,184s-6.3,6.78-6.3,15.66c0,15,2.38,24,2.38,24Z" transform="translate(-0.77 -0.13)" style="opacity:0.4;fill:url(#b8bd487c-329a-4ef7-82ec-b451c8fb6a5a)"/><g style="opacity:0.2"><path d="M192.22,216.57c-.68,1-10.7,16-14.29,23.81h-9.75C177,232.51,191.26,217.57,192.22,216.57Z" transform="translate(-0.77 -0.13)"/><path d="M89.62,233.11l1,6.89h-.73c-.75-1.33-1.84-3.26-3-5.3l1.69,5.3H86.44c-.25-1.92-.75-5.29-1.19-8.09a60.93,60.93,0,0,0-4.06-6.21c-2.55-3.06-12.76-14-12.76-14s-1.79-2.81,1.28-6.38,4.34-2.81,4.34-2.81-2.3,6.38,1.78,11.23S89.62,233.11,89.62,233.11Z" transform="translate(-0.77 -0.13)"/><path d="M84.05,240h-7.2s1.79-1.28-5.1-7.15a123.89,123.89,0,0,0-13.53-10l1-8.17,2-3.57s-1.79,6.38,3.57,10.47C71.73,226.86,79.76,236.32,84.05,240Z" transform="translate(-0.77 -0.13)"/><path d="M180.76,204.28c-.42.77-14,25.49-18.3,36.1H143.63c0-.39,0-.79-.07-1.2l-3.08,1.2H123.14c1.07-3.43,2.27-7.68,3.25-12.12,2.29-10.47,7.23-30.3,12.59-38.47,5.18-7.9,26.11-16.53,27.42-17.15-1.38.9-23.65,15.76-30.57,53.32-1.25,6.8,4.28,10.09,7.69,11.44a34.58,34.58,0,0,1,2.53-14c5.89-13.51,25-32,26.46-33.34-1.18,1.41-13.9,16.73-18,32.07a111,111,0,0,0-2.9,18C155.94,229.59,180.15,204.89,180.76,204.28Z" transform="translate(-0.77 -0.13)"/><path d="M66,240H52a45,45,0,0,1-2.43-7.66l2.73-5.13a7.1,7.1,0,0,0-.17,4.62C53.1,234.86,60.55,237.83,66,240Z" transform="translate(-0.77 -0.13)"/><polygon points="204.25 231.36 194.36 240.25 188.32 240.25 193.87 237.15 204.25 231.36"/></g><g id="bb9bcf59-60b7-4a89-b0c4-547e1a4d5942" data-name="Face"><path id="ef1a4efc-f578-483d-a803-db0a2fc2ca40" data-name="FACE_SKIN_COLOR" d="M58.55,107s7,19,8,22,1,10,3,21,22,28,25,30,23.91-3.89,46-23c37-32,17-76,17-76s-38-30-70-23S58.55,107,58.55,107Z" transform="translate(-0.77 -0.13)" style="fill:#ffe0c9;stroke:#000;stroke-miterlimit:10;stroke-width:2px"/><path id="a4d9a80b-f705-4adb-8c94-50960fa21cce" data-name="face_shadow" d="M98.68,175.15c-2,.24-24.25-13.28-25.15-34,0-.85,10.85,2.55,10.85,2.55l-9.85-7.21s5.93-7.75,6.9-11.4c1.19-4.51-1.17-7.51-3-12.26-.88-2.29-6.91-10.38-7.07-18.78-.23-12.44,5.87-26.67,5.87-32.24-20.8,12.75-18.51,44.84-18.51,44.84S65.56,125,66.57,128c1.45,4.26,1.92,11.32,3.24,23.22,1,8.65,21.81,26.78,26,28.76,3.26,1.53,26.81-5.62,44.21-23.74.47-.49,12.75-12.84,13.24-13.28-7.15,5.62-18.58,14.62-30,21.79C113.53,170.93,105.45,174.36,98.68,175.15Z" transform="translate(-0.77 -0.13)" style="opacity:0.30000000000000004"/></g><g id="b5b77670-5b2a-4894-9332-02f5d557f016" data-name="r_eye"><path d="M96.13,99.06a21.11,21.11,0,0,0-4.22,10.6c-.63,7.28,1.9,11.25,1.9,11.25l6.66-10,25.4-8.64,5.75-6.43s-14.56-3.57-23.75-1.53S96.13,99.06,96.13,99.06Z" transform="translate(-0.77 -0.13)" style="opacity:0.1"/><path d="M94.51,119.7l3.11-8.53s17-4,22-7l5-3s-.43,11.65-2,14c-2,3-4,5-8,6s-5.47,1.51-9.47,1.51a28.79,28.79,0,0,1-6.79-.91A10.86,10.86,0,0,1,94.51,119.7Z" transform="translate(-0.77 -0.13)" style="fill:url(#aa94f140-45e3-41e7-a983-7ec5ab15634d)"/><path id="b7b1f84a-097c-4b5a-8917-cc7ccb09d2ff" data-name="R_EYE_COLOR" d="M120.34,113.87c0,3.32-4.66,6.3-8.4,7.15-3.58.81-5.62-3.79-5.62-7.11s3.27-6,6.94-6S120.34,110.56,120.34,113.87Z" transform="translate(-0.77 -0.13)" style="fill:#ed1c24;stroke:#000;stroke-miterlimit:10"/><path id="adb28359-8b7f-4279-a784-cfcb8dce714e" data-name="R_EYE_GRADIENT" d="M121.3,113.9c0,3.31-4.66,6.3-8.41,7.15-3.57.81-5.61-3.79-5.61-7.11s3.27-6,6.93-6S121.3,110.59,121.3,113.9Z" transform="translate(-0.77 -0.13)" style="stroke:#000;stroke-miterlimit:10;stroke-width:2px;opacity:0.99;fill:url(#badbb9f7-1366-4a12-9f31-b141a3a6ee54)"/><path d="M115.31,117a3.68,3.68,0,0,1-4.67-2.25c-.81-2-.53-4.8,1.23-5.53s4.36.92,5.17,2.89A3.68,3.68,0,0,1,115.31,117Z" transform="translate(-0.77 -0.13)"/><path d="M117.31,112a2.58,2.58,0,0,1-3,.18c-.7-.55-.34-1.72.21-2.43s1.85-.38,2.56.17A1.39,1.39,0,0,1,117.31,112Z" transform="translate(-0.77 -0.13)" style="fill:#f2f2f2;opacity:0.8"/><path d="M112.72,115.13,110,118a1.51,1.51,0,0,0,.26.47,1.23,1.23,0,0,0,.5.41Z" transform="translate(-0.77 -0.13)" style="fill:url(#b02c72a0-62f6-4adc-a5ff-906e31c2f498)"/><path d="M113,115.37l-1.52,3.9a.85.85,0,0,0,.53.34,1.79,1.79,0,0,0,.56,0Z" transform="translate(-0.77 -0.13)" style="fill:url(#b3118aa5-0ff1-433e-9b96-2a9472e0641f)"/><path d="M95.62,114.17l-1.27,5.48-.23,1s3-6,8-8,2.5-.5,14.5-5.5c6.43-2.68,6-2,6-2a11.3,11.3,0,0,1,0,6c-4,13-23.27,10.81-23.27,10.81s20.27,5.19,27.77-11.31c1.85-4.07-.5-12.5-.5-12.5s-13,7-19,9a52.75,52.75,0,0,1-11,2Z" transform="translate(-0.77 -0.13)"/></g><g id="b1a7c09c-1697-4bf2-a214-9f26f757a452" data-name="eyebrows"><path d="M110.62,92.17c-11,0-22,11-22,11l.5,6.5s9.4-10,18.5-12.5a64.64,64.64,0,0,1,21-2S121.62,92.17,110.62,92.17Z" transform="translate(-0.77 -0.13)" style="fill:#1b1464;stroke:#000;stroke-miterlimit:10"/><path d="M62.12,103.67c-4,1-2,7-2,7s-1-3,3-3,14,4,14,4l-3-6S66.12,102.67,62.12,103.67Z" transform="translate(-0.77 -0.13)" style="fill:#1b1464;stroke:#000;stroke-miterlimit:10"/></g><g id="babc3706-0284-4eba-9bd3-49c02fac3144" data-name="l_eye"><path d="M82.13,124.43l-2.73-7.66s-9.17-1.23-12.32-3.12l-3.15-1.89s1.21,7.27,2.2,8.75c1.26,1.89,1.65,3.88,4.17,4.51a16.25,16.25,0,0,0,5.44.77c1.44,0,3-.66,4.73-1.06A13.1,13.1,0,0,1,82.13,124.43Z" transform="translate(-0.77 -0.13)" style="fill:url(#bbeca114-b866-4049-824a-681a2e5bac17)"/><g id="a40f4ddd-54f3-433e-a53d-6c88ae43ed56" data-name="L_EYE_COLOR"><path d="M75.28,125.33c-.8,0-1.44-.76-1.84-1.4-1.25-2-1.81-5.48-1.12-6.9a2,2,0,0,1,2-1.16A9.91,9.91,0,0,1,78.18,117a5.18,5.18,0,0,1,2.66,3.79,3.79,3.79,0,0,1-.4,3.08C79.58,124.85,77.85,125.33,75.28,125.33Z" transform="translate(-0.77 -0.13)" style="fill:#ff1d25"/><path d="M74.3,116.37h0a9.4,9.4,0,0,1,3.67,1.1,4.83,4.83,0,0,1,2.38,3.44,3.33,3.33,0,0,1-.29,2.65c-.75.84-2.36,1.27-4.78,1.27-.6,0-1.15-.73-1.42-1.16-1.22-2-1.65-5.28-1.09-6.42a1.49,1.49,0,0,1,1.53-.88m0-1a2.48,2.48,0,0,0-2.43,1.44c-1.1,2.27.58,9,3.41,9s4.64-.61,5.53-1.6c1.39-1.55.58-6.27-2.41-7.67a10.6,10.6,0,0,0-4.1-1.19Z" transform="translate(-0.77 -0.13)"/></g><g id="a1e2d1ba-2a6d-4ef2-9af7-0b5ae6529abb" data-name="L_EYE_GRADIENT"><path d="M75.26,125.37c-.79,0-1.44-.76-1.84-1.4-1.24-2-1.81-5.48-1.11-6.9a2,2,0,0,1,2-1.16,9.91,9.91,0,0,1,3.88,1.15,5.21,5.21,0,0,1,2.66,3.79,3.83,3.83,0,0,1-.41,3.08C79.57,124.89,77.83,125.37,75.26,125.37Z" transform="translate(-0.77 -0.13)" style="fill:url(#e58ad965-5c0a-4e64-9423-9af55efaf5fd)"/><path d="M74.29,116.41h0a9.4,9.4,0,0,1,3.67,1.1A4.89,4.89,0,0,1,80.34,121a3.37,3.37,0,0,1-.29,2.65c-.75.84-2.37,1.27-4.79,1.27-.6,0-1.14-.73-1.41-1.16-1.22-2-1.65-5.27-1.09-6.42a1.48,1.48,0,0,1,1.53-.88m0-1a2.48,2.48,0,0,0-2.43,1.44c-1.11,2.27.58,9,3.4,9s4.64-.61,5.53-1.6c1.39-1.55.58-6.27-2.41-7.67a10.51,10.51,0,0,0-4.09-1.19Z" transform="translate(-0.77 -0.13)"/></g><path d="M76.47,123.33c-1.43-.19-2.82-2.62-2.67-4.11s1.68-2.07,3.11-1.88,2.58,2.12,2.43,3.62A2.59,2.59,0,0,1,76.47,123.33Z" transform="translate(-0.77 -0.13)"/><path d="M78.93,120.13a1.32,1.32,0,0,1-1.36-.63c-.18-.41.27-.83.69-1s.92.28,1.09.69A.68.68,0,0,1,78.93,120.13Z" transform="translate(-0.77 -0.13)" style="fill:#f2f2f2;opacity:0.8"/><path d="M76,121.87l-2,1.23a.92.92,0,0,0,.08.3.79.79,0,0,0,.23.3Z" transform="translate(-0.77 -0.13)" style="fill:url(#e6cd8560-081a-497c-be64-3a1dcc09bc8c)"/><path d="M76.14,122l-1.43,2a.51.51,0,0,0,.25.26,1.06,1.06,0,0,0,.32.08Z" transform="translate(-0.77 -0.13)" style="fill:url(#e629a5d3-d3ec-4935-aaa6-796f570c5dba)"/><path d="M61.55,110.72s5.61,1.59,9.77,2.81c7.23,2.13,7.83.66,7.83.66l2.15,6.15s-2.32-3.48-9.47-4.43c-5.49-.72-5.83-.51-5.83-.51s.43,7.26,6.38,9.39c2.56.91,4,.57,6.09,0a9.1,9.1,0,0,0,3.1-1.24s-.53,3.05-8.74,2.62c-5.37-.28-6.19-2.87-8-7.3Z" transform="translate(-0.77 -0.13)"/></g><path id="b52dee57-2fd5-42b6-b53e-126fc2d42ad5" data-name="nose" d="M79.43,115.11s3.34,7.57.61,12.17a82.17,82.17,0,0,1-6.7,9.32l11.23,7.34-8-7.92s5.43-8,5.57-10.83C82.36,121.49,79.43,115.11,79.43,115.11Z" transform="translate(-0.77 -0.13)"/><path id="e4c730d4-e5c5-4419-81d6-afb46bf5e098" data-name="mouth" d="M82.91,154.21c-1.14-.9-1.09-1.66.35-1.87.95-.14,2.21.1,3.31,0,5.62-.51,16.69-2.89,20.86-.17s.14,1.36.14,1.36-1.93-1.36-8.57-.93-9.89,2.34-11.66,2.8A5.08,5.08,0,0,1,82.91,154.21Z" transform="translate(-0.77 -0.13)"/><g id="f0f68582-2774-4882-aa5e-416c923e11b2" data-name="HAIR_BG_COLOR"><path d="M197,103.53C194.45,83.82,195.66,71,187.66,55c-10-20.1-24.4-33.47-47.23-36.89-20-3-73.05,9-86.05,49-5.75,17.71-1.63,46.25-.51,74,1.52,37.47,1.79,58.6,1.79,58.6l4.87-18.17L64,202.21s3.53-7.34,7.53-10.34,30-12.25,30-12.25l-6.55.64c-5.4-1.95-23.51-18-25.45-30.64-2-13,0-15-4-25s-6-14.19-6-14.19L80,116a163.87,163.87,0,0,0,16.73-9.32c9.6-6,14.17-7.15,14.17-7.15,3.5-.35,9.77-1.25,11.49.9.7.87,6.52,9.32,9.7,29.1,4.37,27.2,2.93,62.56,2.93,62.56L142.72,167l2.56,13.79,3.57-13.41,2,15.7,52.73-32S200.14,128.2,197,103.53Z" transform="translate(-0.77 -0.13)" style="fill:#1b1464"/></g><g style="opacity:0.30000000000000004"><path d="M95.4,180.26l-.59-.26c-5.4-1.95-24.7-18.64-26.64-31.23-2-13-.17-14.6-4.17-24.6s-5.45-15-5.45-15l20.38,7c-3.48-6-4.44-15.08-6.67-36.68C67.66,35,106.21,25,106.47,22.47,64.85,37.79,57.69,56,54.89,65.87c-5,17.71-.72,47-1,74.81-.37,35.43,2.19,48,1.53,63.7L61,176.43l4,22.21a19.68,19.68,0,0,1,5.74-6.9c3.25-2.43,18.88-8.31,24.66-10.44C96.34,181,96.19,180.91,95.4,180.26Z" transform="translate(-0.77 -0.13)"/></g><path id="ee31eb60-c7da-4786-aee8-eed63b9af425" data-name="HIGHLIGHTS" d="M179.94,43.67l-5.23-3.48,1.15,10.37-9.78-8.93v3.46L163.2,42.5l.86,8.06L150.24,39a119.38,119.38,0,0,1,5.33,15.4,75.09,75.09,0,0,1,2.3,11.37L145.35,53.44l3.46,8.06-8.45-9.1s3.27,5.75,4.13,8.81c.91,3.26.57,4.6.57,4.6l-9.78-9.5s.28,3.17.57,6.91.29,8.93.29,8.93-2.86-.53-5.47-4.61a41.13,41.13,0,0,1-3.17-6.33l-1.44,17.27,3.17-8.06s.29.86,3.45,2.88A37.28,37.28,0,0,0,139,76.47l.29-12.38,9.78,5.75-1.44-6.62,12.53,9.07s1.87-7.63.43-13.38a53.47,53.47,0,0,0-4-10.66,30.8,30.8,0,0,1,7.19,7.49,20.82,20.82,0,0,1,3.17,7.48l-.29-14.1a19.93,19.93,0,0,1,6.62,6.33,48.3,48.3,0,0,1,4.9,9.21l1.58-12.52s8,7.27,11.66,11.52C194.87,67.65,179.94,43.67,179.94,43.67Z" transform="translate(-0.77 -0.13)" style="fill:#fff;opacity:0.35000000000000003"/><path d="M58.26,110.77a57.88,57.88,0,0,1-2.48-7.66c-1.08-4.34-1.35-12.26-1.35-12.26s1.06,8.43,2.59,12.26a62.57,62.57,0,0,0,4.26,8.21Z" transform="translate(-0.77 -0.13)"/><path d="M77,115.57s-1.18-3.94-2.4-9.31a136.81,136.81,0,0,1-1.92-15.37s1.47,10.44,3.19,15.19,4.39,10.18,4.39,10.18Z" transform="translate(-0.77 -0.13)"/><path d="M110.09,75.06s8.74,18.64,12,25c1.56,3,6.8,17.36,6.8,17.36l.73-.95a140.22,140.22,0,0,0-5.81-17.37C120.69,92,110.09,75.06,110.09,75.06Z" transform="translate(-0.77 -0.13)"/><g id="a832fcd5-c64e-4a63-a163-a7fca256c743" data-name="hair"><path d="M133.93,19.22a42.66,42.66,0,0,1,6.33.42c20.77,3.11,36,14.86,46.51,35.91,5.62,11.24,6.38,21,7.35,33.24.37,4.74.75,9.64,1.46,15.12,2.7,21.11,5.94,41.46,6.79,46.75l-51.05,31.56-.77-10.7-1.1-15.46-2.86,15.23-.91,4.9-1.15-6.86L143,160.39l-2.41,8.74-4.18,15.17c-.28-14.72-1.16-37.82-3.92-55-3.35-20.87-8.8-28.17-9.41-28.93-1.57-2-4.25-2.19-6.13-2.19a43.87,43.87,0,0,0-4.52.33l-1.11.12h-.12l-.11,0c-.19,0-4.85,1.11-14.63,7.26-7.73,4.85-14.09,8.39-16.16,9.53l-19.21-5.76-3.69-1.1,1.22,3.65c0,.13,1.07,3.17,5,13.11a34.69,34.69,0,0,1,2.77,13.29A105.16,105.16,0,0,0,67.58,150c1.94,12.59,19.07,27.09,26.26,30.75-8.67,3.63-21.65,9.23-24.48,11.35a19.09,19.09,0,0,0-4.72,6.1l-2.1-16.75L61,168.7l-2.36,12.59-2.41,12.86c-.3-13.57-.82-32.72-1.62-52.57-.25-6-.61-12.23-1-18.21-1.3-21.89-2.52-42.58,1.87-56.09,6.33-19.46,22.43-30.92,34.82-37.11,16.17-8.07,33.15-11,43.65-11m0-2c-23.36,0-68.62,13.28-80.37,49.44-5.76,17.71-2.13,47.21-1,75,1.52,37.46,2,72,2,72l6-32,3,24s3-9,7-12,31.78-14.3,31.78-14.3l-6.43.09c-5.39-1.95-24.41-17.19-26.35-29.79-2-13,0-15-4-25s-5-13-5-13l20,6s7.39-4,17-10,14-7,14-7c1.68-.17,3.65-.44,5.43-.44,2,0,3.67.32,4.57,1.44.7.88,5.82,8.21,9,28,4.37,27.19,4,69,4,69l8-29,3,18,3-16,1,14,55-34s-3.84-23.33-7-48c-2.52-19.71-1-33-9-49-10.05-20.1-25.17-33.58-48-37a45.07,45.07,0,0,0-6.63-.44Z" transform="translate(-0.77 -0.13)"/></g></g></g></g></svg>